<svg width="500" height="600" viewBox="0 0 500 600" fill="none" xmlns="http://www.w3.org/2000/svg">
<path d="M434.1 52.4C412.7 35.7 386.5 22.8 355.4 13.7C324.3 4.7 288.8 0.100006 248.9 0.100006C210.4 0.100006 175.9 4.30001 145.3 12.6C114.7 20.9 88.7 32.8 67.4 48.2C46 63.6 29.6 82.2 18.2 104.1C6.79998 125.9 1.09998 150.3 1.09998 177.2C1.09998 198.7 4.49996 217.2 11.4 232.9C18.2 248.6 27.3 262.1 38.8 273.6C50.3 285 63.5 294.5 78.5 302.2C93.4 309.8 109.2 316.2 125.5 321.3C141.9 326.5 158.4 330.6 175.1 333.8C191.8 337 207.6 339.8 222.4 342.3L256.1 348C266.9 349.8 275.9 351.2 287.1 353C298.3 354.8 309 357.1 319.4 359.8C329.8 362.5 339.5 365.6 348.5 369.2C357.5 372.8 365.4 377.3 372.2 382.5C378.9 387.8 384.2 393.8 388.1 400.7C392 407.6 393.9 415.7 393.9 424.9C393.9 437.1 390.4 448.3 383.5 458.2C376.6 468.2 366.8 476.8 354.3 484C341.7 491.2 326.6 496.7 309.1 500.6C291.6 504.5 272.2 506.5 251.1 506.5C227.5 506.5 206.7 504.1 188.6 499.3C170.5 494.5 155.3 487.7 143 478.9C130.7 470.2 121.4 459.6 115.1 447.3C108.8 434.9 105.7 421.3 105.7 406.2V356.3C105.7 351.8 102.6 347.9 98.3 346.8C81.7 342.8 41.3 331.7 15.9 313.3C9.49996 308.7 0.599976 313.4 0.599976 321.3V406.1C0.599976 435.7 6.09998 462.4 17.2 486.3C28.3 510.1 44.5 530.4 65.9 547.2C87.3 563.9 113.5 576.8 144.6 585.9C175.7 594.9 211.2 599.5 251.1 599.5C289.6 599.5 324.1 595.3 354.7 587C385.3 578.7 411.3 566.8 432.6 551.4C454 536 470.4 517.4 481.8 495.5C493.2 473.7 498.9 449.3 498.9 422.4C498.9 400.9 495.5 382.4 488.6 366.7C481.8 351 472.7 337.5 461.2 326C449.7 314.6 436.5 305.1 421.5 297.4C406.6 289.8 390.8 283.4 374.5 278.3C358.1 273.1 341.6 269 324.9 265.8C308.2 262.6 292.4 259.8 277.6 257.3L255.9 253.6L245.9 252C235.1 250.2 224.1 248.4 212.9 246.5C201.7 244.7 191 242.4 180.6 239.7C170.2 237 160.5 233.9 151.5 230.3C142.5 226.7 134.6 222.2 127.8 217C121.1 211.7 115.8 205.7 111.9 198.8C108 191.9 106.1 183.8 106.1 174.6C106.1 162.4 109.6 151.2 116.5 141.3C123.4 131.3 133.2 122.7 145.7 115.5C158.3 108.3 173.4 102.8 190.9 98.9C208.4 95 227.8 93 248.9 93C272.5 93 293.3 95.4 311.4 100.2C329.5 105 344.7 111.8 357 120.6C369.3 129.3 378.6 139.9 384.9 152.2C391.2 164.6 394.3 178.2 394.3 193.3V243.2C394.3 247.7 397.4 251.6 401.7 252.7C418.3 256.7 458.7 267.8 484.1 286.2C490.5 290.8 499.4 286.1 499.4 278.2V193.4C499.4 163.8 493.9 137.1 482.8 113.2C471.7 89.5 455.5 69.2 434.1 52.4Z" fill="white"/>
</svg>
