<svg width="611" height="186" viewBox="0 0 611 186" fill="none" xmlns="http://www.w3.org/2000/svg">
<path d="M52.8 0.0999756H33.6C33.6 3.39998 33.4 6.29996 33.1 8.79996C32.8 11.3 32.3 13.5 31.7 15.4C31.1 17.3 30.2 18.8 29.1 20.1C28 21.4 26.7 22.4 25.2 23.2C23.7 24 21.9 24.5 19.9 24.9C17.9 25.2 15.6 25.4 13 25.4H0V43.6H31.5V128H6V147.7H78.4V128H52.8V0.0999756Z" fill="#8D61EA"/>
<path d="M175.6 43.2C171.5 40 166.5 37.6 160.6 35.9C154.7 34.2 147.9 33.3 140.4 33.3C133.1 33.3 126.5 34.1 120.7 35.7C114.9 37.3 109.9 39.5 105.9 42.5C101.9 45.5 98.7 49 96.6 53.1C94.4 57.2 93.3 61.9 93.3 67C93.3 71.1 94 74.5999 95.3 77.5999C96.6 80.5999 98.3 83.2 100.5 85.3C102.7 87.5 105.2 89.3 108 90.7C110.8 92.2 113.8 93.4 116.9 94.3C120 95.3 123.2 96.1 126.3 96.7C129.5 97.3 132.5 97.8 135.3 98.3L141.7 99.4C143.8 99.7 145.5 100 147.6 100.4C149.7 100.7 151.8 101.2 153.7 101.7C155.7 102.2 157.5 102.8 159.2 103.5C160.9 104.2 162.4 105 163.7 106C165 107 166 108.2 166.7 109.5C167.4 110.8 167.8 112.3 167.8 114.1C167.8 116.4 167.1 118.5 165.8 120.4C164.5 122.3 162.6 123.9 160.2 125.3C157.8 126.7 154.9 127.7 151.6 128.5C148.3 129.2 144.6 129.6 140.6 129.6C136.1 129.6 132.2 129.1 128.7 128.2C125.3 127.3 122.4 126 120 124.3C117.7 122.6 115.9 120.6 114.7 118.3C113.5 115.9 112.9 113.3 112.9 110.5V101C112.9 100.1 112.3 99.4 111.5 99.2C108.3 98.4 100.7 96.3 95.8 92.8C94.6 91.9 92.9 92.8 92.9 94.3V110.4C92.9 116 93.9 121.1 96.1 125.6C98.2 130.1 101.3 134 105.3 137.2C109.4 140.4 114.4 142.8 120.3 144.5C126.2 146.2 133 147.1 140.5 147.1C147.8 147.1 154.4 146.3 160.2 144.7C166 143.1 171 140.9 175 137.9C179 134.9 182.2 131.4 184.3 127.3C186.5 123.2 187.6 118.5 187.6 113.4C187.6 109.3 186.9 105.8 185.6 102.8C184.3 99.8 182.6 97.1999 180.4 95.0999C178.2 92.8999 175.7 91.1 172.9 89.7C170.1 88.2 167.1 86.9999 164 86.0999C160.9 85.0999 157.7 84.3 154.6 83.7C151.4 83.1 148.4 82.5999 145.6 82.0999L141.5 81.4L139.6 81.0999C137.5 80.7999 135.5 80.3999 133.3 80.0999C131.2 79.7999 129.1 79.3 127.2 78.8C125.2 78.3 123.4 77.7 121.7 77C120 76.3 118.5 75.5 117.2 74.5C115.9 73.5 114.9 72.3 114.2 71C113.5 69.7 113.1 68.2 113.1 66.4C113.1 64.1 113.8 62 115.1 60.1C116.4 58.2 118.3 56.6 120.7 55.2C123.1 53.8 126 52.8 129.3 52C132.6 51.3 136.3 50.9 140.3 50.9C144.8 50.9 148.7 51.4 152.2 52.3C155.6 53.2 158.5 54.5 160.9 56.2C163.2 57.9 165 59.9 166.2 62.2C167.4 64.6 168 67.2 168 70V79.5C168 80.4 168.6 81.1 169.4 81.3C172.6 82.1 180.2 84.2 185.1 87.7C186.3 88.6 188 87.7 188 86.2V70C188 64.4 187 59.3 184.8 54.8C182.7 50.2 179.6 46.4 175.6 43.2Z" fill="white"/>
<path d="M326.6 133.8L298.3 36.3H273.7L245.4 133.7L217.4 36.3H196.2L229.2 147.8H258L285.7 55.2L313.5 147.8H342.3L375.3 36.3H354.6L326.6 133.8Z" fill="#8D61EA"/>
<path d="M471.8 46.1C467.3 42 461.7 38.8 455.2 36.6C448.7 34.4 441.3 33.3 433 33.3C425.2 33.3 418.2 34.3 411.9 36.2C405.6 38.2 400.3 41 395.9 44.6C391.5 48.2 388.1 52.6 385.8 57.8C383.4 63 382.3 68.6999 382.3 75.0999H402.8C402.8 71.5999 403.4 68.4 404.6 65.5C405.8 62.6 407.6 60.2 410.1 58.1C412.5 56.1 415.6 54.5 419.4 53.4C423.2 52.3 427.6 51.7 432.8 51.7C437.9 51.7 442.4 52.4 446.5 53.8C450.5 55.2 454 57.2 456.8 59.8C459.6 62.4 461.8 65.5 463.3 69.2C464.8 72.9 465.6 76.9999 465.6 81.5999V84.2H422.6C415.9 84.2 409.8 85 404.5 86.5C399.2 88 394.6 90.2 390.8 93C387 95.8 384.2 99.3 382.2 103.4C380.2 107.5 379.2 112.1 379.2 117.2C379.2 122.3 380.2 126.8 382.1 131C384 135.1 386.8 138.7 390.3 141.6C393.9 144.5 398.1 146.8 403.1 148.4C408.1 150 413.6 150.8 419.7 150.8C423.6 150.8 427.4 150.5 431 149.8C434.6 149.1 437.9 148.1 441 146.8C444.1 145.5 447 143.8 449.6 141.9C452.2 140 454.6 137.7 456.7 135.3C458.8 132.8 460.6 130.1 462.1 127.1C463.5 124.3 464.7 121.2 465.5 117.9V147.9H486V81.8C486 74.2 484.8 67.4 482.4 61.5C479.8 55.3 476.3 50.2 471.8 46.1ZM460.2 119.3C458.5 121.4 456.5 123.3 454.1 125C451.7 126.7 449 128.1 446 129.3C443 130.5 439.7 131.4 436.2 132C432.7 132.6 428.9 133 425 133C420.8 133 417.1 132.6 413.9 131.9C410.7 131.2 408 130.1 405.8 128.7C403.6 127.3 401.9 125.6 400.8 123.5C399.7 121.4 399.1 119.1 399.1 116.5C399.1 114 399.6 111.9 400.6 110C401.6 108.1 403.1 106.5 405 105.2C406.9 103.9 409.3 103 412.2 102.3C415.1 101.7 418.4 101.3 422.2 101.3H465.4V104.4C465.4 107.2 465 109.8 464.1 112.3C463.2 114.9 461.9 117.2 460.2 119.3Z" fill="#8D61EA"/>
<path d="M608.9 75.8C607.8 70.7 606.3 65.9 604.4 61.6C602.4 57.3 600.1 53.3 597.2 49.8C594.4 46.3 591.2 43.3 587.7 40.9C584.2 38.5 580.4 36.6 576.3 35.3C572.2 34 567.8 33.3 563.3 33.3C558.2 33.3 553.4 34.2 549 36C544.6 37.8 540.5 40.3 537 43.6C533.4 46.9 530.4 50.9 527.8 55.6C525.3 60.1 523.4 65.2 522 70.8V36.4H501.5V186H522V113.3C523.4 118.9 525.3 123.9 527.8 128.5C530.4 133.2 533.4 137.2 537 140.5C540.6 143.8 544.6 146.3 549 148.1C553.4 149.9 558.2 150.8 563.3 150.8C567.9 150.8 572.2 150.1 576.3 148.8C580.4 147.5 584.2 145.6 587.7 143.1C591.2 140.6 594.3 137.7 597.2 134.2C600 130.7 602.4 126.8 604.4 122.4C606.4 118 607.9 113.3 608.9 108.2C610 103.1 610.5 97.7 610.5 92C610.5 86.3 610 80.9 608.9 75.8ZM587.9 109.5C586.4 114.6 584.3 118.8 581.4 122.3C578.6 125.8 575 128.4 570.9 130.1C566.7 131.9 561.9 132.8 556.4 132.8C552.8 132.8 549.5 132.4 546.4 131.5C543.3 130.7 540.5 129.4 538 127.8C535.5 126.2 533.2 124.2 531.2 121.9C529.2 119.6 527.5 116.9 526.2 113.8C524.9 110.8 523.8 107.4 523.1 103.8C522.4 100.1 522 96.2 522 91.9C522 87.7 522.4 83.7 523.1 80C523.8 76.3 524.8 73 526.2 70C527.5 67 529.2 64.3 531.2 62C533.2 59.7 535.5 57.7 538 56.1C540.5 54.5 543.4 53.3 546.4 52.4C549.5 51.6 552.8 51.1 556.4 51.1C561.9 51.1 566.7 52 570.9 53.8C575.1 55.6 578.6 58.2 581.4 61.6C584.2 65 586.4 69.3 587.8 74.4C589.3 79.5 590 85.3 590 91.9C590.1 98.6 589.3 104.4 587.9 109.5Z" fill="#8D61EA"/>
</svg>
